<svg xmlns="http://www.w3.org/2000/svg" version="1.1" xmlns:xlink="http://www.w3.org/1999/xlink" xmlns:svgjs="http://svgjs.com/svgjs" width="1440" height="560" preserveAspectRatio="none" viewBox="0 0 1440 560"><g mask="url(&quot;#SvgjsMask1005&quot;)" fill="none"><path d="M0 36C7.29 11.69 16.74 6.49 42 0C86.74 -11.51 91 0 140 0C192.5 0 198.35 -13.06 245 0C268.35 6.54 256.57 38.29 280 39.2C344.07 41.68 349.98 22.91 420 6.77C434.98 3.31 434.71 0.74 450 0C504.71 -2.65 505 0 560 0C630 0 630 0 700 0C770 0 770 0 840 0C910 0 910 0 980 0C1050 0 1050 0 1120 0C1190 0 1190 0 1260 0C1330 0 1330 0 1400 0C1470 0 1489.53 -19.53 1540 0C1559.53 7.56 1546.38 28.33 1540 54.19C1529.11 98.33 1505.45 98.77 1505.45 140C1505.45 168.27 1532.71 163.64 1540 193.2C1549.98 233.64 1540 236.6 1540 280C1540 350 1540 350 1540 420C1540 490 1573.79 523.79 1540 560C1508.46 593.79 1472.86 564.31 1409.33 560C1402.86 559.56 1404.71 550.51 1400 550.51C1395.21 550.51 1396.93 559.55 1390.34 560C1326.93 564.3 1325.17 560 1260 560C1190 560 1190 560 1120 560C1050 560 1050 560 980 560C910 560 910 560 840 560C770 560 770 560 700 560C630 560 630 560 560 560C491.23 560 489.15 563.03 422.46 560C419.15 559.85 421.19 553.64 420 553.64C418.81 553.64 420.98 559.85 417.7 560C350.98 563.03 348.85 560 280 560C210 560 210 560 140 560C70 560 41.06 588.94 0 560C-28.94 539.6 -28.69 486.54 0 461.31C41.31 424.99 69.48 442.27 140 436.9C209.48 431.61 211.56 446.25 280 440C304.14 437.8 325.16 429.47 325.16 420C325.16 410.72 303.75 405.99 280 402.5C211.17 392.38 209.78 399.84 140 392.78C69.78 385.68 42 408.01 0 374.18C-28 351.62 0 327.09 0 280C0 210 0 210 0 140C0 88 -13.71 81.69 0 36" stroke="rgba(0, 0, 0, 1)" stroke-width="2"></path><path d="M1120 103.41C1089.7 103.41 1054.29 118.52 1054.29 140C1054.29 164.57 1091.15 195.52 1120 195.52C1142.3 195.52 1156.59 165.9 1156.59 140C1156.59 119.84 1140.85 103.41 1120 103.41" stroke="rgba(0, 0, 0, 1)" stroke-width="2"></path><path d="M1400 257.68C1387.85 257.68 1378.61 268.72 1378.61 280C1378.61 291.55 1387.77 303.33 1400 303.33C1416.8 303.33 1436.67 291.48 1436.67 280C1436.67 268.66 1416.88 257.68 1400 257.68" stroke="rgba(0, 0, 0, 1)" stroke-width="2"></path><path d="M560 372.7C524.6 372.7 483.91 397.11 483.91 420C483.91 442.36 524.31 463.21 560 463.21C586.33 463.21 607.95 442.15 607.95 420C607.95 396.89 586.62 372.7 560 372.7" stroke="rgba(0, 0, 0, 1)" stroke-width="2"></path><path d="M1120 360.33C1071.68 360.33 1012.94 383.85 1012.94 420C1012.94 462.88 1074.95 518.38 1120 518.38C1154.48 518.38 1172 466.18 1172 420C1172 387.15 1151.21 360.33 1120 360.33" stroke="rgba(0, 0, 0, 1)" stroke-width="2"></path><path d="M0 86C35.61 36.31 46.49 33.07 100.33 0C116.49 -9.93 120.16 0 140 0C161.25 0 166.75 -12.28 182.5 0C236.75 42.32 220.82 93.44 280 109.2C339.57 125.06 348.55 79.98 420 63.23C488.55 47.16 504.9 22.18 560 43.56C603.83 60.57 602.62 87.42 617.87 140C636.91 205.64 646.82 221.54 628.57 280C617.88 314.24 597.47 309.41 560 325.41C493.18 353.95 491.53 360.57 420 369.09C351.53 377.24 346.85 376.31 280 358.75C206.85 339.54 213.04 308.13 140 295.56C73.04 284.03 57.52 316.94 0 310.55C-12.48 309.16 0 295.27 0 280C0 210 0 210 0 140C0 113 -14.55 106.31 0 86" stroke="rgba(0, 0, 0, 1)" stroke-width="2"></path><path d="M700 52C650.87 36.42 609 13.92 609 0C609 -12.08 654.5 0 700 0C770 0 770 0 840 0C910 0 910 0 980 0C1050 0 1050 0 1120 0C1190 0 1190 0 1260 0C1330 0 1330 0 1400 0C1454.03 0 1495.41 -29.54 1508.07 0C1525.41 40.46 1493.62 75.62 1460 140C1439.58 179.1 1430.59 174.02 1400 206.96C1365.59 244.02 1330 243.09 1330 280C1330 317.79 1358.45 326.87 1400 356.36C1457.08 396.87 1465.03 386.22 1527.27 420C1535.03 424.21 1539.22 423.81 1540 432.35C1545.59 493.81 1563.08 519.26 1540 560C1526.92 583.08 1497.66 574.74 1467.67 560C1427.66 540.33 1434.13 491.19 1400 491.19C1365.29 491.19 1370.86 539.92 1330 560C1300.86 574.32 1295 560 1260 560C1212.79 560 1172.89 586.94 1165.58 560C1153.89 516.94 1233.23 483.36 1222 420C1210.44 354.83 1182.54 341.14 1120 302.95C1067.91 271.14 992.73 291.76 992.73 280C992.73 268.22 1070.84 289.66 1120 255.86C1172.66 219.66 1196.36 194.05 1196.36 140C1196.36 97.94 1163.51 63.64 1120 63.64C1056.76 63.64 1031.26 89.4 982.86 140C961.26 162.58 981.55 210 980 210C978.45 210 998.75 161.57 976.67 140C928.75 93.2 911.64 96.05 840 73.26C773.3 52.05 766.37 73.05 700 52" stroke="rgba(0, 0, 0, 1)" stroke-width="2"></path><path d="M1520 280C1520 268.17 1533.91 263.2 1540 263.2C1543.91 263.2 1540 271.6 1540 280C1540 326.66 1544.94 373.33 1540 373.33C1534.94 373.33 1520 323.23 1520 280" stroke="rgba(0, 0, 0, 1)" stroke-width="2"></path><path d="M655.89 420C682.73 390.57 670.35 352.92 700 352.92C747.92 352.92 791.39 370.73 811.03 420C832.67 474.27 817.74 515.64 782.56 560C762.23 585.64 741.28 560 700 560C630 560 630 560 560 560C521.93 560 483.86 572.05 483.86 560C483.86 545.26 523.96 535.75 560 506.42C609.97 465.75 612.73 467.32 655.89 420" stroke="rgba(0, 0, 0, 1)" stroke-width="2"></path><path d="M0 518.69C54.19 494.4 69.64 504.45 140 497.24C209.64 490.1 217.41 472.17 280 490C327.57 503.55 360.33 540.04 360.33 560C360.33 575.04 320.16 560 280 560C210 560 210 560 140 560C70 560 54.05 575.95 0 560C-15.95 555.29 -15.81 525.78 0 518.69" stroke="rgba(0, 0, 0, 1)" stroke-width="2"></path><path d="M885.71 560C885.71 533.05 932.37 467.6 980 467.6C1028.67 467.6 1078.3 533.27 1078.3 560C1078.3 579.47 1029.15 560 980 560C932.86 560 885.71 579.25 885.71 560" stroke="rgba(0, 0, 0, 1)" stroke-width="2"></path><path d="M0 136C68.08 122.38 76.1 110.38 140 112C154.85 112.38 157.5 127.79 157.5 140C157.5 147.88 150.4 150.94 140 152.17C71.65 160.27 61.77 164.04 0 158.67C-8.23 157.95 0 149.33 0 140C0 138 -1.92 136.38 0 136" stroke="rgba(0, 0, 0, 1)" stroke-width="2"></path><path d="M365.22 140C365.22 124.99 391.32 122.43 420 119.68C488.71 113.09 494.57 112.54 560 121.33C570.17 122.7 571.2 129.39 571.2 140C571.2 198.73 592.71 249.9 560 260C517.11 273.24 486.92 227.9 420 186.67C389.53 167.9 365.22 158.49 365.22 140" stroke="rgba(0, 0, 0, 1)" stroke-width="2"></path><path d="M700 2C698.04 1.55 696.5 0.54 696.5 0C696.5 -0.46 698.25 0 700 0C770 0 770 0 840 0C910 0 910 0 980 0C1050 0 1050 0 1120 0C1190 0 1190 0 1260 0C1330 0 1330 0 1400 0C1423.34 0 1444.89 -17.17 1446.67 0C1452.16 52.83 1434.81 72.18 1414.55 140C1411.48 150.29 1407.51 148.33 1400 156.23C1340.93 218.33 1326.76 210.54 1281.39 280C1256.76 317.72 1278.64 370.59 1260 370.59C1238.33 370.59 1205.88 329.4 1200.77 280C1193.95 214.1 1255.03 199.92 1236.14 140C1214.65 71.85 1187.9 44.1 1120 23.86C1059.83 5.92 1050.52 61.45 980 63.64C910.52 65.8 910.03 47.98 840 32.56C770.03 17.16 769.79 17.83 700 2" stroke="rgba(0, 0, 0, 1)" stroke-width="2"></path><path d="M211.71 280C211.71 245.83 245.08 197.65 280 197.65C316.07 197.65 353.68 246.24 353.68 280C353.68 304.92 316.58 315 280 315C245.59 315 211.71 304.51 211.71 280" stroke="rgba(0, 0, 0, 1)" stroke-width="2"></path><path d="M1336.36 420C1336.36 414.39 1368.98 409.39 1400 409.39C1411.4 409.39 1421.21 414.45 1421.21 420C1421.21 425.69 1411.58 431.86 1400 431.86C1369.15 431.86 1336.36 425.63 1336.36 420" stroke="rgba(0, 0, 0, 1)" stroke-width="2"></path><path d="M122.5 560C122.5 559.39 131.24 558.7 140 557.59C209.99 548.7 212.98 539.01 280 540C294.46 540.21 302.95 554.3 302.95 560C302.95 564.3 291.48 560 280 560C210 560 210 560 140 560C131.25 560 122.5 560.6 122.5 560" stroke="rgba(0, 0, 0, 1)" stroke-width="2"></path><path d="M545.26 560C545.26 557.15 551.27 549.63 560 549.63C611.14 549.63 665 557.4 665 560C665 562.59 612.5 560 560 560C552.63 560 545.26 562.33 545.26 560" stroke="rgba(0, 0, 0, 1)" stroke-width="2"></path><path d="M957.14 560C957.14 553.47 968.45 537.6 980 537.6C991.8 537.6 1003.83 553.52 1003.83 560C1003.83 564.72 991.91 560 980 560C968.57 560 957.14 564.67 957.14 560" stroke="rgba(0, 0, 0, 1)" stroke-width="2"></path><path d="M1246.98 560C1246.98 537.17 1254.3 504 1260 504C1265.64 504 1269.66 536.07 1269.66 560C1269.66 564.07 1264.83 560 1260 560C1253.49 560 1246.98 565.17 1246.98 560" stroke="rgba(0, 0, 0, 1)" stroke-width="2"></path><path d="M1526 560C1526 551.72 1536.26 535.29 1540 535.29C1543.26 535.29 1544.47 552.11 1540 560C1537.47 564.47 1526 564.08 1526 560" stroke="rgba(0, 0, 0, 1)" stroke-width="2"></path></g><defs><mask id="SvgjsMask1005"><rect width="1440" height="560" fill="#ffffff"></rect></mask></defs></svg>